<?xml version="1.0" encoding="utf-8" ?>
<svg xmlns="http://www.w3.org/2000/svg" xmlns:xlink="http://www.w3.org/1999/xlink" width="165" height="165">
<path style="fill:#ffffff; stroke:none;" d="M67 35L69 35C73.0446 26.5234 82.092 20.3649 90.9846 26.6528C94.0636 28.8299 96.0141 31.8773 98 35C106.668 27.7648 105.966 12.7948 97.8951 5.21297C91.0699 -1.19847 78.7726 -2.08304 71.0401 3.24922C68.1539 5.23953 65.9565 7.88486 64.3781 11.0039C62.6419 14.4348 61.8339 18.1581 62.0972 22C62.4268 26.8079 64.4804 30.9937 67 35M33 18.5293C12.5205 23.2634 13.497 53.8329 33 59.2068C36.3544 60.1311 39.6795 59.5704 43 58.7608C61.8238 54.1711 66.4856 25.1375 46 18.8032C42.0601 17.585 37.0032 17.604 33 18.5293M120 18.5332C94.3988 24.7169 106.303 64.5567 131 59.456C145.662 56.4278 151.916 37.9151 143.351 26.0154C138.175 18.8249 128.378 16.5096 120 18.5332z"/>
<path style="fill:#34667c; stroke:none;" d="M78 24L79 25L78 24z"/>
<path style="fill:#2cb9f1; stroke:none;" d="M79 24.6528C60.1417 30.5378 69.4876 59.0021 88 53.0069C105.912 47.2061 96.9306 19.0573 79 24.6528z"/>
<path style="fill:#327f9e; stroke:none;" d="M87 24L88 25L87 24z"/>
<path style="fill:#327895; stroke:none;" d="M76 25L77 26L76 25z"/>
<path style="fill:#33728c; stroke:none;" d="M73 27L74 28L73 27z"/>
<path style="fill:#33738e; stroke:none;" d="M72 28L73 29L72 28z"/>
<path style="fill:#308cb1; stroke:none;" d="M95 30L96 31L95 30z"/>
<path style="fill:#3182a3; stroke:none;" d="M69 33L70 34L69 33z"/>
<path style="fill:#34677d; stroke:none;" d="M97 34L98 35L97 34z"/>
<path style="fill:#336e86; stroke:none;" d="M68 35L69 36L68 35z"/>
<path style="fill:#2cb9f1; stroke:none;" d="M59 39C58.4364 49.8647 49.8646 58.4364 39 59C47.7184 76.8269 75.1999 59.6177 64.115 43.0586C62.727 40.9853 61.1565 40.0547 59 39M126 60C115.629 56.3966 106.632 51.173 106 39C89.2456 47.1939 103.242 72.7029 119.995 65.1829C122.644 63.9942 124.271 62.2313 126 60z"/>
<path style="fill:#327c9a; stroke:none;" d="M58 44L59 45L58 44z"/>
<path style="fill:#327d9c; stroke:none;" d="M106 44L107 45L106 44z"/>
<path style="fill:#327e9e; stroke:none;" d="M44 58L45 59L44 58z"/>
<path style="fill:#327e9d; stroke:none;" d="M120 58L121 59L120 58z"/>
<path style="fill:#3186a9; stroke:none;" d="M125 59L126 60L125 59z"/>
<path style="fill:#ffffff; stroke:none;" d="M36 98C27.9155 91.6117 18.5744 83.2683 28.1335 73.0548C30.4357 70.595 33.3963 69.0574 36 67C32.4942 64.6903 29.1868 62.7041 25 61.939C21.5773 61.3136 18.3818 61.4149 15 62.2407C-10.0738 68.3641 -1.36039 107.06 24 103.228C28.6019 102.532 32.1669 100.525 36 98M129 67C131.59 69.0466 134.532 70.5695 136.786 73.0548C146.133 83.3584 137.21 91.5127 129 98C132.833 100.525 136.398 102.532 141 103.228C166.36 107.06 175.074 68.3641 150 62.2407C146.618 61.4149 143.423 61.3136 140 61.939C135.813 62.7041 132.506 64.6903 129 67z"/>
<path style="fill:#2cb9f1; stroke:none;" d="M36 67.6528C16.5034 72.8031 24.1839 102.609 43 97.0563C60.6312 91.853 53.9551 62.9097 36 67.6528M124 67.4838C105.141 70.5796 109.169 100.816 128 97.5702C147.045 94.287 142.963 64.3709 124 67.4838z"/>
<path style="fill:#346a81; stroke:none;" d="M31 69L32 70L31 69z"/>
<path style="fill:#34677d; stroke:none;" d="M133 69L134 70L133 69z"/>
<path style="fill:#356377; stroke:none;" d="M25 75L26 76L25 75z"/>
<path style="fill:#308db3; stroke:none;" d="M24 86L25 87L24 86z"/>
<path style="fill:#308bb1; stroke:none;" d="M140 86L141 87L140 86z"/>
<path style="fill:#356377; stroke:none;" d="M25 89L26 90L25 89z"/>
<path style="fill:#346c84; stroke:none;" d="M31 95L32 96L31 95z"/>
<path style="fill:#346b82; stroke:none;" d="M133 95L134 96L133 95z"/>
<path style="fill:#2cb9f1; stroke:none;" d="M39 106C51.173 106.631 56.3966 115.629 60 126C62.2313 124.271 63.9942 122.644 65.1829 119.995C72.7029 103.242 47.1939 89.2456 39 106M105 126C109.098 114.207 114.207 109.098 126 105C124.508 103.075 123.179 101.489 120.981 100.299C104.33 91.2804 90.4755 114.748 105 126z"/>
<path style="fill:#ffffff; stroke:none;" d="M34 105.544C19.3299 108.569 13.0555 127.046 21.6489 138.985C26.8249 146.176 36.6221 148.49 45 146.467C70.6253 140.279 58.6918 100.452 34 105.544z"/>
<path style="fill:#3185a7; stroke:none;" d="M125 105L126 106L125 105z"/>
<path style="fill:#ffffff; stroke:none;" d="M126 105.454C120.992 106.111 115.856 107.699 112.105 111.214C96.3242 126.002 110.031 149.308 130 146.815C154.842 143.713 150.914 102.182 126 105.454z"/>
<path style="fill:#327e9d; stroke:none;" d="M44 106L45 107L44 106z"/>
<path style="fill:#327d9d; stroke:none;" d="M120 106L121 107L120 106z"/>
<path style="fill:#2cb9f1; stroke:none;" d="M80 111.483C60.5307 114.773 65.786 143.716 85 140.785C104.483 137.814 99.1942 108.24 80 111.483z"/>
<path style="fill:#327d9c; stroke:none;" d="M58 120L59 121L58 120M106 120L107 121L106 120z"/>
<path style="fill:#3185a7; stroke:none;" d="M59 125L60 126L59 125z"/>
<path style="fill:#3187ab; stroke:none;" d="M105 125L106 126L105 125z"/>
<path style="fill:#346c85; stroke:none;" d="M95 133L96 134L95 133z"/>
<path style="fill:#ffffff; stroke:none;" d="M96 133C86.9557 141.943 79.4393 143.159 70 134C52.1664 149.341 78.787 176.309 95.9059 160.775C97.9622 158.91 99.6977 156.567 100.772 154C102.064 150.912 102.221 147.293 101.815 144C101.262 139.514 99.3754 135.901 96 133z"/>
<path style="fill:#34677c; stroke:none;" d="M75 139L76 140L75 139z"/>
<path style="fill:#34657b; stroke:none;" d="M89 139L90 140L89 139z"/>
</svg>
