<svg version="1.2" xmlns="http://www.w3.org/2000/svg" xmlns:xlink="http://www.w3.org/1999/xlink" overflow="visible" preserveAspectRatio="none" viewBox="0 0 24 24" width="48" height="48"><g><path xmlns:default="http://www.w3.org/2000/svg" id="angle-right" d="M15.02,12c0-0.09-0.04-0.18-0.1-0.24l-4.83-4.85C9.96,6.78,9.75,6.77,9.62,6.9c0,0-0.01,0.01-0.01,0.01  L9.09,7.43C8.95,7.56,8.95,7.76,9.07,7.9c0,0,0.01,0.01,0.01,0.01l4.1,4.09l-4.1,4.09c-0.13,0.13-0.14,0.33-0.01,0.47  c0,0,0.01,0.01,0.01,0.01l0.52,0.52c0.13,0.13,0.33,0.14,0.47,0.01c0,0,0.01-0.01,0.01-0.01l4.85-4.85  C14.99,12.17,15.02,12.09,15.02,12L15.02,12z" style="fill: #888"/></g></svg>