<svg version="1.2" xmlns="http://www.w3.org/2000/svg" xmlns:xlink="http://www.w3.org/1999/xlink" overflow="visible" preserveAspectRatio="none" viewBox="0 0 24 24" width="20" height="20"><g><path xmlns:default="http://www.w3.org/2000/svg" id="table" d="M8.56,17.9c-0.06,0.06-0.15,0.09-0.24,0.09H4.99C4.82,18,4.67,17.86,4.66,17.68c0-0.01,0-0.01,0-0.02v-2  c-0.01-0.18,0.13-0.32,0.31-0.33c0.01,0,0.01,0,0.02,0h3.34c0.18-0.01,0.32,0.13,0.33,0.31c0,0.01,0,0.01,0,0.02v2  C8.67,17.75,8.63,17.84,8.56,17.9z M8.56,13.9c-0.06,0.06-0.15,0.09-0.24,0.09H4.99C4.82,14,4.67,13.86,4.66,13.68  c0-0.01,0-0.01,0-0.02v-2c-0.01-0.18,0.13-0.32,0.31-0.33c0.01,0,0.01,0,0.02,0h3.34c0.18-0.01,0.32,0.13,0.33,0.31  c0,0.01,0,0.01,0,0.02v2c0.01,0.09-0.03,0.19-0.1,0.25V13.9z M13.89,17.9c-0.06,0.06-0.15,0.09-0.24,0.09h-3.33  C10.15,18,10,17.86,9.99,17.68c0-0.01,0-0.01,0-0.02v-2c-0.01-0.18,0.13-0.32,0.31-0.33c0.01,0,0.01,0,0.02,0h3.33  c0.18-0.01,0.32,0.13,0.33,0.31c0,0.01,0,0.01,0,0.02v2c0.01,0.09-0.02,0.17-0.08,0.24H13.89z M8.56,9.9  C8.5,9.96,8.41,9.99,8.32,9.99H4.99C4.82,10,4.67,9.86,4.66,9.68c0-0.01,0-0.01,0-0.02v-2c0-0.18,0.14-0.32,0.32-0.32  c0,0,0.01,0,0.01,0h3.34c0.18-0.01,0.32,0.13,0.33,0.31c0,0.01,0,0.01,0,0.02v2c0,0.09-0.03,0.18-0.1,0.24V9.9z M13.89,13.9  c-0.06,0.06-0.15,0.09-0.24,0.09h-3.33C10.15,14,10,13.86,10,13.68c0,0,0-0.01,0-0.01v-2c-0.01-0.18,0.13-0.32,0.31-0.33  c0.01,0,0.01,0,0.02,0h3.33c0.18-0.01,0.32,0.13,0.33,0.31c0,0.01,0,0.01,0,0.02v2c0.01,0.09-0.02,0.17-0.08,0.24L13.89,13.9z   M19.22,17.9c-0.06,0.06-0.14,0.1-0.23,0.1h-3.34c-0.18,0.01-0.32-0.13-0.33-0.31c0-0.01,0-0.01,0-0.02v-2  c-0.01-0.18,0.13-0.32,0.31-0.33c0.01,0,0.01,0,0.02,0h3.34c0.18-0.01,0.32,0.13,0.33,0.31c0,0.01,0,0.01,0,0.02v2  c0,0.09-0.03,0.17-0.09,0.23H19.22z M13.89,9.9c-0.06,0.06-0.15,0.09-0.24,0.09h-3.33C10.15,10,10,9.86,10,9.68c0,0,0-0.01,0-0.01  v-2c-0.01-0.18,0.13-0.32,0.31-0.33c0.01,0,0.01,0,0.02,0h3.33c0.18-0.01,0.32,0.13,0.33,0.31c0,0.01,0,0.01,0,0.02v2  c0.01,0.09-0.02,0.17-0.08,0.24L13.89,9.9z M19.22,13.9c-0.06,0.06-0.14,0.1-0.23,0.1h-3.34c-0.18,0.01-0.32-0.13-0.33-0.31  c0-0.01,0-0.01,0-0.02v-2c-0.01-0.18,0.13-0.32,0.31-0.33c0.01,0,0.01,0,0.02,0h3.34c0.18-0.01,0.32,0.13,0.33,0.31  c0,0.01,0,0.01,0,0.02v2c0,0.09-0.03,0.18-0.09,0.24L19.22,13.9z M19.22,9.9c-0.06,0.06-0.14,0.1-0.23,0.1h-3.34  c-0.18,0.01-0.32-0.13-0.33-0.31c0-0.01,0-0.01,0-0.02v-2c-0.01-0.18,0.13-0.32,0.31-0.33c0.01,0,0.01,0,0.02,0h3.34  c0.18-0.01,0.32,0.13,0.33,0.31c0,0.01,0,0.01,0,0.02v2c0,0.09-0.03,0.18-0.09,0.24L19.22,9.9z M20.16,5.15  c-0.31-0.31-0.73-0.49-1.17-0.48h-14C4.08,4.68,3.33,5.42,3.33,6.34v11.32c0,0.92,0.74,1.66,1.66,1.67h14  c0.92,0,1.67-0.75,1.67-1.67l0,0V6.34c0.01-0.45-0.18-0.87-0.5-1.18V5.15z" style="fill: #337ab7;" vector-effect="non-scaling-stroke"/></g></svg>