<svg version="1.2" xmlns="http://www.w3.org/2000/svg" xmlns:xlink="http://www.w3.org/1999/xlink" overflow="visible" preserveAspectRatio="none" viewBox="0 0 24 24" width="20.000000000000004" height="20.000000000000004"><g><path xmlns:default="http://www.w3.org/2000/svg" id="lock" d="M9.33,11.35v-2c0.01-1.47,1.2-2.66,2.67-2.66c1.47,0,2.67,1.2,2.67,2.67v2H9.33V11.35z M17.99,12.35  c0-0.55-0.45-1-1-1h-0.33v-2c0.03-1.25-0.47-2.46-1.37-3.33c-1.8-1.82-4.73-1.83-6.55-0.03C8.73,6,8.72,6.01,8.71,6.02  c-0.9,0.87-1.4,2.08-1.37,3.33v2H7c-0.55,0-1,0.45-1,1v6c0,0.55,0.45,1,1,1h10c0.55,0,1-0.45,1-1v-6l0,0H17.99z" style="fill: rgb(255, 255, 255);" vector-effect="non-scaling-stroke"/></g></svg>