<svg version="1.2" xmlns="http://www.w3.org/2000/svg" xmlns:xlink="http://www.w3.org/1999/xlink" overflow="visible" preserveAspectRatio="none" viewBox="0 0 24 24" width="20.000000000000004" height="20.000000000000004"><g><path xmlns:default="http://www.w3.org/2000/svg" id="unlock" d="M20.66,9.36c0.03-1.25-0.47-2.46-1.37-3.33c-1.81-1.82-4.76-1.83-6.58-0.01c0,0-0.01,0.01-0.01,0.01  c-0.89,0.86-1.39,2.06-1.37,3.3v2h-7c-0.55,0-1,0.45-1,1v6c0,0.55,0.45,1,1,1h10c0.55,0,1-0.45,1-1v-6c0-0.55-0.45-1-1-1h-1v-2  c0.01-1.47,1.21-2.66,2.69-2.65c0.7,0,1.37,0.28,1.86,0.77c0.51,0.49,0.79,1.17,0.78,1.88v2.7c0.01,0.37,0.3,0.66,0.67,0.67H20  c0.36-0.01,0.65-0.31,0.66-0.67V9.36L20.66,9.36z" style="fill: rgb(255, 255, 255);" vector-effect="non-scaling-stroke"/></g></svg>